<?xml version="1.0" standalone="no"?>
<!DOCTYPE svg PUBLIC "-//W3C//DTD SVG 20010904//EN"
 "http://www.w3.org/TR/2001/REC-SVG-20010904/DTD/svg10.dtd">
<svg version="1.0" xmlns="http://www.w3.org/2000/svg"
 width="626.000000pt" height="626.000000pt" viewBox="0 0 626.000000 626.000000"
 preserveAspectRatio="xMidYMid meet">
<metadata>
Created by potrace 1.14, written by Peter Selinger 2001-2017
</metadata>
<g transform="translate(0.000000,626.000000) scale(0.100000,-0.100000)"
fill="#000000" stroke="none">
<path d="M3323 3929 c-32 -9 -83 -64 -83 -88 0 -7 -8 -10 -17 -8 -85 24 -271
25 -365 3 -97 -22 -221 -88 -289 -153 l-57 -54 -31 15 c-97 51 -204 -22 -204
-138 0 -67 24 -113 69 -132 20 -8 34 -18 32 -22 -2 -4 -16 -33 -32 -65 -85
-170 -8 -415 169 -537 l43 -30 -38 -75 c-63 -124 -97 -315 -58 -323 11 -2 18
4 20 20 3 20 15 25 98 45 135 31 376 71 505 83 61 5 242 10 402 10 l293 0 4
-22 c3 -13 7 -47 10 -77 6 -61 9 -66 31 -57 14 5 16 17 10 81 l-7 75 40 44
c84 91 113 194 114 401 2 248 -68 390 -208 427 -40 11 -42 14 -63 80 -23 75
-68 151 -125 211 -35 37 -36 40 -25 80 39 146 -82 251 -238 206z m-113 -144
c19 -4 37 -19 50 -41 33 -52 98 -86 181 -92 68 -5 69 -5 119 -58 49 -52 104
-152 111 -203 3 -20 -2 -26 -31 -35 -43 -13 -68 -31 -98 -70 -29 -38 -41 -83
-52 -201 -10 -110 -58 -269 -90 -296 -29 -25 -172 -68 -278 -84 -200 -30 -386
-13 -504 46 -227 114 -324 363 -210 543 14 22 45 87 68 144 50 118 87 176 144
225 48 40 134 88 205 112 87 30 273 35 385 10z m548 -501 c2 -12 -4 -24 -12
-27 -19 -7 -40 18 -32 39 8 22 40 13 44 -12z m-90 -18 c-2 -13 -10 -21 -23
-21 -23 0 -33 34 -14 45 20 13 40 -1 37 -24z m156 -23 c10 -26 -23 -48 -42
-29 -8 8 -12 22 -9 30 8 21 43 20 51 -1z m-89 -15 c31 -14 58 -60 49 -82 -8
-20 -69 -39 -109 -34 -27 3 -30 7 -33 40 -3 29 2 43 22 63 29 28 35 30 71 13z
m-121 -25 c10 -26 -23 -48 -42 -29 -8 8 -12 22 -9 30 8 21 43 20 51 -1z"/>
<path d="M2985 3549 c-31 -28 -35 -36 -35 -81 0 -41 4 -53 28 -73 15 -14 52
-48 82 -77 102 -98 124 -106 170 -60 75 76 37 220 -78 293 -64 41 -119 40
-167 -2z m133 -72 c2 -12 -3 -17 -17 -17 -12 0 -21 6 -21 13 0 31 32 34 38 4z"/>
<path d="M2653 3449 c-89 -26 -142 -199 -94 -305 23 -51 68 -84 115 -84 47 0
65 28 77 121 5 39 16 85 24 102 30 60 10 149 -37 162 -44 13 -53 13 -85 4z
m57 -102 c0 -8 -3 -17 -7 -20 -9 -9 -34 13 -27 24 8 14 34 11 34 -4z"/>
<path d="M2868 3274 c-50 -21 -59 -51 -24 -81 15 -13 34 -23 42 -23 8 0 14 -7
14 -15 0 -26 29 -75 45 -75 23 0 26 16 10 55 -15 35 -15 37 10 67 17 20 25 40
23 57 -3 23 -8 26 -43 28 -22 1 -57 -5 -77 -13z"/>
</g>
</svg>
