<?xml version="1.0" standalone="no"?>
<!DOCTYPE svg PUBLIC "-//W3C//DTD SVG 20010904//EN"
 "http://www.w3.org/TR/2001/REC-SVG-20010904/DTD/svg10.dtd">
<svg version="1.0" xmlns="http://www.w3.org/2000/svg"
 width="265.000000pt" height="265.000000pt" viewBox="0 0 265.000000 265.000000"
 preserveAspectRatio="xMidYMid meet">
<metadata>
Created by potrace 1.14, written by Peter Selinger 2001-2017
</metadata>
<g transform="translate(0.000000,265.000000) scale(0.100000,-0.100000)"
fill="#000000" stroke="none">
<path d="M1565 2210 c-36 -11 -81 -51 -90 -81 -6 -17 -12 -20 -33 -15 -68 17
-268 18 -341 2 -102 -21 -223 -83 -297 -150 l-62 -56 -43 15 c-101 36 -189
-30 -189 -140 0 -61 28 -112 70 -128 17 -6 30 -16 30 -22 0 -5 -13 -36 -29
-67 -54 -105 -50 -230 8 -349 45 -91 96 -146 199 -215 2 -1 -13 -34 -32 -72
-65 -128 -101 -322 -61 -322 8 0 15 7 15 15 0 20 27 30 172 60 325 66 690 96
983 79 l150 -9 9 -72 c7 -52 13 -73 24 -73 11 0 13 16 11 79 -3 78 -3 79 29
106 46 38 99 155 113 245 6 43 9 133 7 210 -9 229 -63 332 -201 380 -47 17
-53 22 -60 56 -12 62 -64 159 -114 215 l-48 53 3 80 c3 92 -14 133 -66 160
-38 19 -119 28 -157 16z m-130 -144 c18 -4 42 -23 60 -46 44 -56 96 -82 176
-88 68 -5 69 -5 119 -58 53 -55 110 -164 110 -208 0 -18 -7 -25 -31 -30 -88
-17 -134 -98 -148 -261 -7 -82 -18 -135 -43 -205 -33 -91 -36 -96 -79 -117
-164 -80 -504 -108 -669 -55 -98 32 -188 90 -243 158 -67 83 -91 149 -92 254
0 82 2 88 44 165 24 44 56 113 71 153 40 102 72 153 129 204 89 80 215 135
336 146 71 7 205 0 260 -12z m553 -504 c3 -18 -1 -22 -22 -22 -19 0 -26 5 -26
18 0 39 43 43 48 4z m-92 -27 c-3 -9 -14 -15 -23 -13 -22 4 -30 38 -11 49 18
11 43 -15 34 -36z m158 -11 c8 -21 -1 -34 -24 -34 -25 0 -35 17 -20 35 16 20
36 19 44 -1z m-89 -16 c15 -7 33 -25 42 -41 14 -27 13 -31 -5 -49 -28 -28
-111 -37 -128 -14 -16 23 -2 75 27 99 25 20 30 21 64 5z m-125 -23 c15 -18 5
-35 -20 -35 -22 0 -34 15 -26 35 7 19 30 19 46 0z"/>
<path d="M1215 1829 c-31 -28 -35 -36 -35 -81 0 -42 4 -53 31 -76 16 -15 56
-52 88 -83 91 -89 123 -99 164 -49 56 65 40 188 -32 253 -85 77 -156 89 -216
36z m133 -72 c2 -12 -3 -17 -17 -17 -12 0 -21 6 -21 13 0 31 32 34 38 4z"/>
<path d="M883 1729 c-89 -26 -142 -199 -94 -305 25 -55 64 -84 112 -84 50 0
68 27 80 120 4 38 15 83 24 99 8 17 15 46 15 66 0 81 -60 126 -137 104z m57
-103 c0 -8 -4 -17 -8 -20 -13 -8 -35 11 -28 23 10 16 36 14 36 -3z"/>
<path d="M1093 1553 c-46 -23 -52 -51 -19 -80 15 -13 34 -23 42 -23 8 0 14 -7
14 -15 0 -30 30 -75 50 -75 24 0 25 7 4 55 -15 36 -14 38 6 60 12 13 23 38 23
57 2 32 1 33 -43 35 -26 1 -59 -5 -77 -14z"/>
</g>
</svg>
